<svg xmlns="http://www.w3.org/2000/svg" width="65.681" height="94.309" viewBox="0 0 65.681 94.309">
  <g id="noun-hand-drawn-arrow-2930278" transform="matrix(0.985, 0.174, -0.174, 0.985, 292.922, 422.469)">
    <g id="Groupe_10" data-name="Groupe 10" transform="translate(-347 -371)">
      <path id="Tracé_15" data-name="Tracé 15" d="M16.4,77.7a.6.6,0,0,1,.4.1c.1,0,.1.1.1.2l-.1.1h0c-.1-.1-.2-.3-.4-.4Z" fill-rule="evenodd"/>
      <g id="Groupe_9" data-name="Groupe 9">
        <path id="Tracé_16" data-name="Tracé 16" d="M48.3,5.6a.446.446,0,0,1,0-.5c0-.1.1-.3.1-.4a5.019,5.019,0,0,0,.2-1.2c0-.2.1-.3.2-.3.2.1.2.2.2.3v.6a1.8,1.8,0,0,0,.2,1,5.244,5.244,0,0,1,.2,1.7,4.1,4.1,0,0,1-.1,1.1c-.1.3.1.5.1.9a7.612,7.612,0,0,0,.3-2.1c.2-.1.3,0,.4.1l.1.1v.4a5.652,5.652,0,0,0,0,1.3v.6c-.1.6-.1,1.2-.2,1.7-.2,1-.2,2-.4,2.9V14l.1.1h.1c0-.1.1-.2.1-.4,0-.3.1-.6.1-.8s.1-.3.2-.3c.1.1.2.2.2.3a1.087,1.087,0,0,1,.1.5v1.2a4.052,4.052,0,0,0,0,1.1v.4a2.25,2.25,0,0,0,.1,1.4,2.2,2.2,0,0,1,.1.8c0,.6-.1,1.3-.1,1.9v.9a3.812,3.812,0,0,1,.1,1.5.6.6,0,0,0,.1.4c.2.3.1.5.2.8v2.4c.1.8.1,1.7.2,2.5v.8a1.268,1.268,0,0,0,.1.6,12.1,12.1,0,0,1,.1,1.9,4.854,4.854,0,0,0,0,1.7V34a8.854,8.854,0,0,0,0,2.3,3.4,3.4,0,0,1-.1,1v.9a2.438,2.438,0,0,0,0,1.2v.5a1.02,1.02,0,0,1-.2.9c-.1.2-.2.3-.3.5a3.449,3.449,0,0,1-.9,1.2c-.5.5-1.1.8-1.6,1.3a8.818,8.818,0,0,1-2,.9,7.006,7.006,0,0,1-1.4.3c-.1,0-.2.1-.3.1a5.019,5.019,0,0,1-1.2.2.844.844,0,0,0-.7.2,1.077,1.077,0,0,1-.8.2,3.4,3.4,0,0,0-1,.1,13.553,13.553,0,0,1-2,.2c-.3-.1-.5.1-.8,0-.3,0-.6-.1-.8-.1h-.4a9.652,9.652,0,0,1-1.7,0c-.2,0-.4-.1-.6,0h-.3c-.4-.1-.8,0-1.2-.1a4.052,4.052,0,0,0-1.1,0h-.6a1.063,1.063,0,0,0-.8.1.215.215,0,0,0-.2.2,2.353,2.353,0,0,0-.2.8c.2,1.1.1,2.3.4,3.4a16.553,16.553,0,0,0,.6,2.1.6.6,0,0,1,.1.4A8.083,8.083,0,0,0,32,55a4.348,4.348,0,0,0,.4.7c.1.2.3.4.4.6.3.8.7,1.5,1,2.3,0,.1.1.2.1.3a5.094,5.094,0,0,0,.7,1.7,6.117,6.117,0,0,1,.5,1.2,1.613,1.613,0,0,0,.3.9,1.421,1.421,0,0,1,.2.6c.2.6.3,1.2.5,1.8a6.107,6.107,0,0,1,.3,1.3.367.367,0,0,0,.1.3,1.11,1.11,0,0,1,.1,1.1,14.764,14.764,0,0,1-1,2.7c-.1.1-.1.2-.2.3a2.407,2.407,0,0,0-.6.8l-1.2,1.2c-.1.1-.2.1-.3.2a1.779,1.779,0,0,0-1.1.8,2.075,2.075,0,0,1-1,.6.758.758,0,0,0-.4.2,1.421,1.421,0,0,1-.6.2.9.9,0,0,0-.5.1,2.354,2.354,0,0,1-.8.2c-.2,0-.3.1-.5.2a2.01,2.01,0,0,1-.8.4,1.268,1.268,0,0,0-.6.1,1.7,1.7,0,0,0-.7.1l-1.5.3a2.354,2.354,0,0,0-.8.2h-.8a2.92,2.92,0,0,0-.9.2.854.854,0,0,1-.7,0,4.331,4.331,0,0,1-.5-.1c-.3,0-.6.1-.9.1h-.8a1.1,1.1,0,0,1-.8,0h-.5a4.253,4.253,0,0,0-1.1.2,4.869,4.869,0,0,1-1.2-.1,2.054,2.054,0,0,0-1.1,0c-.2.1-.4,0-.6,0h-.4a.1.1,0,0,0-.1.1V77a.1.1,0,0,0,.1.1,8.108,8.108,0,0,0,2.1,1c.1.1.3,0,.4-.1v.1h0a.1.1,0,0,0-.1-.1h.1a.918.918,0,0,1,.6.4h0c-.5-.4-.4-.4-.2-.4h.3l.2.2c.1,0,.2.1.2,0a.638.638,0,0,1,.6,0c.1,0,.1.1.2.2a.349.349,0,0,1-.2-.1c-.1,0-.1,0-.1.1h.4c.1,0,.1.1.1.2.1.2.1.2.2,0l.1-.1a.908.908,0,0,1,.7.3v.1c0,.2-.1.3,0,.5,0,.1.1.3.1.4-.1.3-.3.5-.4.8-.1.1,0,.3.1.4a1,1,0,0,0,.5.4,5.383,5.383,0,0,1,1.2.9,1.38,1.38,0,0,1,.3.4,5.938,5.938,0,0,0,.4.8A5.273,5.273,0,0,0,22.6,85l.2.2c.2.3.3.7.7.9l.6.9c.4.4.6.9,1,1.2a4.233,4.233,0,0,1,.5.7,2.177,2.177,0,0,1,.5.8v.1a.1.1,0,0,1-.1.1c-.2,0-.3-.1-.5-.1a1.676,1.676,0,0,1-1.2-.3c-.6-.4-1.3-.7-1.9-1.1a4.129,4.129,0,0,1-1.1-.7c-.8-.6-1.6-1.1-2.4-1.7l-3-2.1a23.925,23.925,0,0,1-2.1-1.3,22.471,22.471,0,0,1-2.1-1.2l-3-1.8a9.993,9.993,0,0,0-1.4-.8,5.938,5.938,0,0,1-.8-.4.349.349,0,0,1-.2-.1A4.58,4.58,0,0,0,5,77.5l-1.2-.6a.454.454,0,0,0-.5,0,2.769,2.769,0,0,1-.9.1,1.268,1.268,0,0,1-.6-.1.523.523,0,0,1-.4-.8.854.854,0,0,0,0-.7l-.3-.6-.6-.3c-.6.3-.5.1-.5-.4a.367.367,0,0,1,.1-.3c.2-.4.3-.7.5-1.1a.675.675,0,0,1,.6-.4,3.553,3.553,0,0,1,1-.2,4.145,4.145,0,0,0,1.6-.3,6.7,6.7,0,0,0,1.8-.7,8.509,8.509,0,0,1,1.7-.6c.3-.1.5-.1.8-.2.2-.1.5-.2.7-.3s.3-.2.5-.2a.349.349,0,0,0,.2-.1,4.011,4.011,0,0,1,1.7-.9c.2,0,.3-.1.4-.3l.3-.3a4.349,4.349,0,0,0,.7-.6,3.915,3.915,0,0,1,1-.8c.1-.1.3-.1.4-.2.2-.2.5-.1.6-.4l.3-.6c.1-.1.1-.2.2-.3a4.3,4.3,0,0,1,1-.9,6.279,6.279,0,0,0,1.2-1.1l.3-.3a3.615,3.615,0,0,0,1.5-1.5,7.945,7.945,0,0,1,1.8-1.4.367.367,0,0,1,.3-.1c.4.1.8,0,1.2.1a.919.919,0,0,0,1-.2.349.349,0,0,1,.2-.1c.1,0,.1,0,.2.1a.778.778,0,0,1,.2.8,3.81,3.81,0,0,1-.3,1,.764.764,0,0,0-.2.5,5.359,5.359,0,0,1-.5,1.1,8.341,8.341,0,0,0-.8,1.2c0,.1-.1.1-.2.2a6.191,6.191,0,0,0-1.1,1.7,5.023,5.023,0,0,0-.5,1.3c-.2.3-.4.5-.6.8a6.034,6.034,0,0,0-.8.8,7.272,7.272,0,0,1-.9.8c-.2.3-.6.4-.8.7v.1c0,.1,0,.1.1.1a1.7,1.7,0,0,0,.7.1h1.1a4.735,4.735,0,0,0,1.7-.1,2.152,2.152,0,0,1,.8,0c.2,0,.4.1.5,0a11.019,11.019,0,0,1,1.8-.2c.4,0,.7-.1,1.1-.1.3,0,.7-.1,1-.1a2.079,2.079,0,0,1,1.1-.1h.4c.4-.1.8-.1,1.3-.2.1,0,.2-.2.2-.3-.2-.6,0-1.2-.2-1.7a.749.749,0,0,0-.1-.5,1.268,1.268,0,0,1-.1-.6,4.508,4.508,0,0,0-.3-1.1,7.838,7.838,0,0,1-.5-1.4,3.81,3.81,0,0,0-.3-1c-.1-.3-.2-.6-.3-1a.758.758,0,0,0-.2-.4c-.3-.5-.4-1-.7-1.5-.2-.4-.3-.8-.5-1.2-.5-1.3-1-2.7-1.4-4.1a1.087,1.087,0,0,1-.1-.5,9.079,9.079,0,0,0-.3-2.3,9.971,9.971,0,0,1-.2-1.6,6.613,6.613,0,0,1,.8-4.1c.3-.6.7-1.2,1-1.8a1.38,1.38,0,0,0,.3-.4c.2-.3.5-.6.7-.9a1.205,1.205,0,0,1,.5-.5,1.949,1.949,0,0,0,1-1,1.205,1.205,0,0,1,.5-.5.592.592,0,0,1,.7-.1c.2.1.3,0,.4-.1a4.3,4.3,0,0,1,1-.9c.4-.1.8,0,1.2-.1h.4a1.7,1.7,0,0,0,1,0c.4-.1.9-.1,1.3-.2h.2c.4.2.9,0,1.3,0,1.1.1,2.2.1,3.3.3A3.887,3.887,0,0,1,41,41a8.854,8.854,0,0,0,2.3,0c.5,0,.6-.2.8-.7a3.553,3.553,0,0,0,.2-1c.1-1.2.4-2.3.5-3.5v-.3a13.553,13.553,0,0,0,.2-2c0-.2.1-.5.1-.7,0-.5.1-1,.1-1.6V29.3a.9.9,0,0,1,.1-.5c0-.1.1-.2.1-.3-.1-.5.1-1,0-1.6v-.6c.1-.5.1-.9.2-1.4a8.807,8.807,0,0,1,.2-1.7V22.1a5.279,5.279,0,0,0,0-2.5,1.1,1.1,0,0,1,0-.8c.1-.3.1-.7.4-.9.1-.5.3-1,.1-1.4-.1-.3-.1-.5.2-.7a.6.6,0,0,0,.3-.6v-.4a.215.215,0,0,1,.2-.2l.1.1a4.854,4.854,0,0,1,0,1.7v.4a.215.215,0,0,0,.2.2.1.1,0,0,0,.1-.1,1.729,1.729,0,0,0,.1-1,2.769,2.769,0,0,1,.1-.9c.1-.4.1-.7.2-1.1.1-.8.3-1.6.4-2.4a3.4,3.4,0,0,0,.1-1A7.719,7.719,0,0,1,48.5,9c.1-.4.1-.9.2-1.3V7.6a10.869,10.869,0,0,1,.1-1.8,1.268,1.268,0,0,0-.1-.6c0,.6-.2.5-.4.4Zm1.2,9.6a.31.31,0,0,0-.1.2,8.807,8.807,0,0,1-.2,1.7v.4a.1.1,0,0,0,.1.1c.1,0,.1,0,.2-.1a.6.6,0,0,0,.1-.4V15.3Zm-.9-.4c.1-.5.2-.9.3-1.4v-.3a.1.1,0,0,0-.1.1c-.2.3-.1.7-.2,1A.638.638,0,0,0,48.6,14.8Zm.6-5h0a.756.756,0,0,0-.1.4l.1.1h.1C49.3,10,49.3,9.8,49.2,9.8Z" fill-rule="evenodd"/>
        <path id="Tracé_17" data-name="Tracé 17" d="M49.5.5c0-.2,0-.4.2-.5h.1a.1.1,0,0,1,.1.1c.1.2,0,.3-.1.5-.1.1-.2.2-.2.1C49.5.6,49.5.6,49.5.5Z" fill-rule="evenodd"/>
        <path id="Tracé_18" data-name="Tracé 18" d="M49.3,1.4c0,.1.1.1,0,0a.188.188,0,0,1,0,.3h-.1c0-.1,0-.1.1-.3Z" fill-rule="evenodd"/>
        <path id="Tracé_19" data-name="Tracé 19" d="M46.6,11.2Z" fill-rule="evenodd"/>
        <path id="Tracé_20" data-name="Tracé 20" d="M49.2,2.5l-.1.1V2.5Z" fill-rule="evenodd"/>
        <path id="Tracé_21" data-name="Tracé 21" d="M46.8,10.5Z" fill-rule="evenodd"/>
        <path id="Tracé_22" data-name="Tracé 22" d="M48.3,5.6Z" fill-rule="evenodd"/>
      </g>
    </g>
  </g>
</svg>
